<mxfile host="app.diagrams.net" agent="Mozilla/5.0 (Windows NT 10.0; Win64; x64) AppleWebKit/537.36 (KHTML, like Gecko) Chrome/132.0.0.0 Safari/537.36" version="26.0.8">
  <diagram name="Pagina-1" id="JCYuuiRpM-6LhHxAUWR3">
    <mxGraphModel grid="1" page="1" gridSize="10" guides="1" tooltips="1" connect="1" arrows="1" fold="1" pageScale="1" pageWidth="827" pageHeight="1169" math="0" shadow="1">
      <root>
        <mxCell id="0" />
        <mxCell id="1" parent="0" />
        <mxCell id="SRKh6WN4u7mFaw51lIuJ-2" value="" style="html=1;points=[[0,0,0,0,5],[0,1,0,0,-5],[1,0,0,0,5],[1,1,0,0,-5]];perimeter=orthogonalPerimeter;outlineConnect=0;targetShapes=umlLifeline;portConstraint=eastwest;newEdgeStyle={&quot;curved&quot;:0,&quot;rounded&quot;:0};fillColor=#dae8fc;strokeColor=#6c8ebf;strokeWidth=2;" vertex="1" parent="1">
          <mxGeometry x="490" y="200" width="10" height="360" as="geometry" />
        </mxCell>
        <mxCell id="NEM8SUISmHcpV_f2KN4W-4" value="" style="html=1;points=[[0,0,0,0,5],[0,1,0,0,-5],[1,0,0,0,5],[1,1,0,0,-5]];perimeter=orthogonalPerimeter;outlineConnect=0;targetShapes=umlLifeline;portConstraint=eastwest;newEdgeStyle={&quot;curved&quot;:0,&quot;rounded&quot;:0};fillColor=#dae8fc;strokeColor=#6c8ebf;strokeWidth=2;" vertex="1" parent="1">
          <mxGeometry x="310" y="200" width="10" height="360" as="geometry" />
        </mxCell>
        <mxCell id="NEM8SUISmHcpV_f2KN4W-10" value="load model" style="html=1;verticalAlign=bottom;endArrow=block;curved=0;rounded=0;fillColor=#dae8fc;strokeColor=#6c8ebf;strokeWidth=2;" edge="1" parent="1" target="SRKh6WN4u7mFaw51lIuJ-2">
          <mxGeometry width="80" relative="1" as="geometry">
            <mxPoint x="320" y="270" as="sourcePoint" />
            <mxPoint x="480" y="270" as="targetPoint" />
          </mxGeometry>
        </mxCell>
        <mxCell id="NEM8SUISmHcpV_f2KN4W-16" value="return model" style="html=1;verticalAlign=bottom;endArrow=open;dashed=1;endSize=8;curved=0;rounded=0;fillColor=#dae8fc;strokeColor=#6c8ebf;strokeWidth=2;" edge="1" parent="1">
          <mxGeometry relative="1" as="geometry">
            <mxPoint x="490" y="300" as="sourcePoint" />
            <mxPoint x="320" y="300" as="targetPoint" />
          </mxGeometry>
        </mxCell>
        <mxCell id="NEM8SUISmHcpV_f2KN4W-18" value="load encoder" style="html=1;verticalAlign=bottom;endArrow=block;curved=0;rounded=0;fillColor=#dae8fc;strokeColor=#6c8ebf;strokeWidth=2;" edge="1" parent="1">
          <mxGeometry width="80" relative="1" as="geometry">
            <mxPoint x="320" y="330" as="sourcePoint" />
            <mxPoint x="670" y="330" as="targetPoint" />
          </mxGeometry>
        </mxCell>
        <mxCell id="SRKh6WN4u7mFaw51lIuJ-5" value="" style="html=1;points=[[0,0,0,0,5],[0,1,0,0,-5],[1,0,0,0,5],[1,1,0,0,-5]];perimeter=orthogonalPerimeter;outlineConnect=0;targetShapes=umlLifeline;portConstraint=eastwest;newEdgeStyle={&quot;curved&quot;:0,&quot;rounded&quot;:0};fillColor=#dae8fc;strokeColor=#6c8ebf;strokeWidth=2;" vertex="1" parent="1">
          <mxGeometry x="670" y="200" width="10" height="360" as="geometry" />
        </mxCell>
        <mxCell id="SRKh6WN4u7mFaw51lIuJ-8" value="" style="html=1;points=[[0,0,0,0,5],[0,1,0,0,-5],[1,0,0,0,5],[1,1,0,0,-5]];perimeter=orthogonalPerimeter;outlineConnect=0;targetShapes=umlLifeline;portConstraint=eastwest;newEdgeStyle={&quot;curved&quot;:0,&quot;rounded&quot;:0};fillColor=#dae8fc;strokeColor=#6c8ebf;strokeWidth=2;" vertex="1" parent="1">
          <mxGeometry x="850" y="200" width="10" height="360" as="geometry" />
        </mxCell>
        <mxCell id="SRKh6WN4u7mFaw51lIuJ-10" value="load scaler" style="html=1;verticalAlign=bottom;endArrow=block;curved=0;rounded=0;fillColor=#dae8fc;strokeColor=#6c8ebf;strokeWidth=2;" edge="1" parent="1">
          <mxGeometry width="80" relative="1" as="geometry">
            <mxPoint x="320" y="400" as="sourcePoint" />
            <mxPoint x="850" y="400" as="targetPoint" />
          </mxGeometry>
        </mxCell>
        <mxCell id="SRKh6WN4u7mFaw51lIuJ-11" value="return encoder" style="html=1;verticalAlign=bottom;endArrow=open;dashed=1;endSize=8;curved=0;rounded=0;fillColor=#dae8fc;strokeColor=#6c8ebf;strokeWidth=2;" edge="1" parent="1" target="NEM8SUISmHcpV_f2KN4W-4">
          <mxGeometry relative="1" as="geometry">
            <mxPoint x="670" y="360" as="sourcePoint" />
            <mxPoint x="430" y="360" as="targetPoint" />
          </mxGeometry>
        </mxCell>
        <mxCell id="SRKh6WN4u7mFaw51lIuJ-12" value="return scaler" style="html=1;verticalAlign=bottom;endArrow=open;dashed=1;endSize=8;curved=0;rounded=0;fillColor=#dae8fc;strokeColor=#6c8ebf;strokeWidth=2;" edge="1" parent="1" target="NEM8SUISmHcpV_f2KN4W-4">
          <mxGeometry relative="1" as="geometry">
            <mxPoint x="860" y="430" as="sourcePoint" />
            <mxPoint x="620" y="430" as="targetPoint" />
          </mxGeometry>
        </mxCell>
        <mxCell id="NEM8SUISmHcpV_f2KN4W-1" value="User" style="shape=umlActor;verticalLabelPosition=bottom;verticalAlign=top;html=1;outlineConnect=0;fillColor=#dae8fc;strokeColor=#6c8ebf;strokeWidth=2;" vertex="1" parent="1">
          <mxGeometry x="50" y="80" width="30" height="60" as="geometry" />
        </mxCell>
        <mxCell id="NEM8SUISmHcpV_f2KN4W-2" value="AttritionDesk App" style="html=1;whiteSpace=wrap;fillColor=#dae8fc;strokeColor=#6c8ebf;fontStyle=1;strokeWidth=2;" vertex="1" parent="1">
          <mxGeometry x="260" y="110" width="110" height="50" as="geometry" />
        </mxCell>
        <mxCell id="NEM8SUISmHcpV_f2KN4W-3" value="" style="html=1;points=[[0,0,0,0,5],[0,1,0,0,-5],[1,0,0,0,5],[1,1,0,0,-5]];perimeter=orthogonalPerimeter;outlineConnect=0;targetShapes=umlLifeline;portConstraint=eastwest;newEdgeStyle={&quot;curved&quot;:0,&quot;rounded&quot;:0};fillColor=#dae8fc;strokeColor=#6c8ebf;strokeWidth=2;" vertex="1" parent="1">
          <mxGeometry x="60" y="200" width="10" height="360" as="geometry" />
        </mxCell>
        <mxCell id="NEM8SUISmHcpV_f2KN4W-5" value="" style="endArrow=none;dashed=1;html=1;rounded=0;fillColor=#dae8fc;strokeColor=#6c8ebf;strokeWidth=2;" edge="1" parent="1">
          <mxGeometry width="50" height="50" relative="1" as="geometry">
            <mxPoint x="64.5" y="200" as="sourcePoint" />
            <mxPoint x="65" y="170" as="targetPoint" />
          </mxGeometry>
        </mxCell>
        <mxCell id="NEM8SUISmHcpV_f2KN4W-6" value="" style="endArrow=none;dashed=1;html=1;rounded=0;fillColor=#dae8fc;strokeColor=#6c8ebf;strokeWidth=2;" edge="1" parent="1">
          <mxGeometry width="50" height="50" relative="1" as="geometry">
            <mxPoint x="314.5" y="200" as="sourcePoint" />
            <mxPoint x="315" y="170" as="targetPoint" />
          </mxGeometry>
        </mxCell>
        <mxCell id="NEM8SUISmHcpV_f2KN4W-7" value="Start App" style="html=1;verticalAlign=bottom;endArrow=block;curved=0;rounded=0;fillColor=#dae8fc;strokeColor=#6c8ebf;strokeWidth=2;" edge="1" parent="1" target="NEM8SUISmHcpV_f2KN4W-4">
          <mxGeometry width="80" relative="1" as="geometry">
            <mxPoint x="70" y="230" as="sourcePoint" />
            <mxPoint x="150" y="230" as="targetPoint" />
          </mxGeometry>
        </mxCell>
        <mxCell id="NEM8SUISmHcpV_f2KN4W-19" value="Display Home Page" style="html=1;verticalAlign=bottom;endArrow=open;dashed=1;endSize=8;curved=0;rounded=0;fillColor=#dae8fc;strokeColor=#6c8ebf;strokeWidth=2;" edge="1" parent="1">
          <mxGeometry relative="1" as="geometry">
            <mxPoint x="310" y="520" as="sourcePoint" />
            <mxPoint x="70" y="520" as="targetPoint" />
          </mxGeometry>
        </mxCell>
        <mxCell id="SRKh6WN4u7mFaw51lIuJ-1" value="Model Loader" style="html=1;whiteSpace=wrap;fillColor=#dae8fc;strokeColor=#6c8ebf;fontStyle=1;strokeWidth=2;" vertex="1" parent="1">
          <mxGeometry x="440" y="110" width="110" height="50" as="geometry" />
        </mxCell>
        <mxCell id="SRKh6WN4u7mFaw51lIuJ-3" value="" style="endArrow=none;dashed=1;html=1;rounded=0;fillColor=#dae8fc;strokeColor=#6c8ebf;strokeWidth=2;" edge="1" parent="1">
          <mxGeometry width="50" height="50" relative="1" as="geometry">
            <mxPoint x="494.5" y="200" as="sourcePoint" />
            <mxPoint x="495" y="170" as="targetPoint" />
          </mxGeometry>
        </mxCell>
        <mxCell id="SRKh6WN4u7mFaw51lIuJ-4" value="Encoder Loader" style="html=1;whiteSpace=wrap;fillColor=#dae8fc;strokeColor=#6c8ebf;fontStyle=1;strokeWidth=2;" vertex="1" parent="1">
          <mxGeometry x="620" y="110" width="110" height="50" as="geometry" />
        </mxCell>
        <mxCell id="SRKh6WN4u7mFaw51lIuJ-6" value="" style="endArrow=none;dashed=1;html=1;rounded=0;fillColor=#dae8fc;strokeColor=#6c8ebf;strokeWidth=2;" edge="1" parent="1">
          <mxGeometry width="50" height="50" relative="1" as="geometry">
            <mxPoint x="674.5" y="200" as="sourcePoint" />
            <mxPoint x="675" y="170" as="targetPoint" />
          </mxGeometry>
        </mxCell>
        <mxCell id="SRKh6WN4u7mFaw51lIuJ-7" value="Scaler Loader" style="html=1;whiteSpace=wrap;fillColor=#dae8fc;strokeColor=#6c8ebf;fontStyle=1;strokeWidth=2;" vertex="1" parent="1">
          <mxGeometry x="800" y="110" width="110" height="50" as="geometry" />
        </mxCell>
        <mxCell id="SRKh6WN4u7mFaw51lIuJ-9" value="" style="endArrow=none;dashed=1;html=1;rounded=0;fillColor=#dae8fc;strokeColor=#6c8ebf;strokeWidth=2;" edge="1" parent="1">
          <mxGeometry width="50" height="50" relative="1" as="geometry">
            <mxPoint x="854.5" y="200" as="sourcePoint" />
            <mxPoint x="855" y="170" as="targetPoint" />
          </mxGeometry>
        </mxCell>
        <mxCell id="SRKh6WN4u7mFaw51lIuJ-14" value="show_home( )" style="html=1;align=left;spacingLeft=2;endArrow=block;rounded=0;edgeStyle=orthogonalEdgeStyle;curved=0;rounded=0;fillColor=#dae8fc;strokeColor=#6c8ebf;strokeWidth=2;" edge="1" parent="1">
          <mxGeometry relative="1" as="geometry">
            <mxPoint x="320" y="460" as="sourcePoint" />
            <Array as="points">
              <mxPoint x="350" y="490" />
            </Array>
            <mxPoint x="325" y="490" as="targetPoint" />
          </mxGeometry>
        </mxCell>
      </root>
    </mxGraphModel>
  </diagram>
</mxfile>
